<?xml version="1.0" encoding="utf-8"?>
<!-- Generator: Adobe Illustrator 25.0.1, SVG Export Plug-In . SVG Version: 6.00 Build 0)  -->
<svg version="1.1" id="Layer_1" xmlns="http://www.w3.org/2000/svg" xmlns:xlink="http://www.w3.org/1999/xlink" x="0px" y="0px"
	 viewBox="0 0 154.7 154.7" style="enable-background:new 0 0 154.7 154.7;" xml:space="preserve">
<style type="text/css">
	.st0{fill:#FFFFFF;stroke:#FFFFFF;stroke-miterlimit:10;}
</style>
<g>
	<path class="st0" d="M77.4,2.1C35.9,2.1,2.2,35.8,2.2,77.4s33.6,75.2,75.1,75.2s75.1-33.7,75.1-75.2S118.9,2.1,77.4,2.1z M77.3,140
		c-35.9,0-65-28.1-65-62.8c0-30.6,22.6-56,52.6-61.6c0.2,3.3,3.1,5.9,6.5,5.9H83c3.5,0,6.3-2.6,6.5-5.9c30,5.6,52.7,31,52.7,61.6
		C142.2,111.9,113.1,140,77.3,140z"/>
	<ellipse class="st0" cx="77.4" cy="124.3" rx="8.3" ry="8"/>
	<ellipse class="st0" cx="112.8" cy="108.3" rx="8.3" ry="8"/>
	<ellipse class="st0" cx="128.1" cy="83.8" rx="8.3" ry="8"/>
	<ellipse class="st0" cx="41.8" cy="108.3" rx="8.3" ry="8"/>
	<ellipse class="st0" cx="26.3" cy="83.8" rx="8.3" ry="8"/>
</g>
</svg>
